ply
format ascii 1.0
comment VCGLIB generated
comment TextureFile dummy.png
element vertex 376
property float x
property float y
property float z
property float nx
property float ny
property float nz
property uchar red
property uchar green
property uchar blue
property uchar alpha
property float texture_u
property float texture_v
element face 748
property list uchar int vertex_indices
end_header
-0.02071699 0.009197 0.03251 -0.1811915 -0.7454751 0.6414332 163 163 163 255 0 0
-0.028932 0.009197 0.025482 -0.624779 -0.7371614 0.2573797 163 163 163 255 0 0
-0.02352499 0.020809 0.035713 -0.3261238 -0.1612268 0.931477 163 163 163 255 0 0
-0.03174 0.020809 0.028308 -0.8975717 -0.1562232 0.4122612 163 163 163 255 0 0
-0.023954 0.065606 0.036191 -0.3220094 -0.01738613 0.9465768 163 163 163 255 0 0
-0.03216901 0.065606 0.028729 -0.9145128 -0.01679867 0.4042081 163 163 163 255 0 0
0.02536199 0.009197 0.028669 0.2989211 -0.7414622 0.6007329 163 163 163 255 0 0
0.033678 0.009197 0.018684 0.6364095 -0.7402885 0.2166934 163 163 163 255 0 0
0.036548 0.020809 0.020755 0.9319897 -0.1485488 0.3306484 163 163 163 255 0 0
0.02823202 0.020809 0.031494 0.4791989 -0.16006 0.8629885 163 163 163 255 0 0
0.028673 0.065606 0.031915 0.4786425 -0.01688619 0.8778476 163 163 163 255 0 0
0.036988 0.065606 0.021063 0.9469434 -0.01571982 0.3210157 163 163 163 255 0 0
-0.02222999 0.436892 -0.034414 -0.3143139 0.02634998 -0.9489534 163 163 163 255 0 0
-0.030445 0.436892 -0.027162 -0.9115004 0.02576642 -0.4104913 163 163 163 255 0 0
-0.02560001 0.286077 -0.038208 -0.3312252 0.01360844 -0.9434536 163 163 163 255 0 0
-0.033816 0.286078 -0.030509 -0.9168134 0.01348583 -0.3990881 163 163 163 255 0 0
0.02706502 0.436892 -0.030348 0.4710568 0.02513742 -0.8817446 163 163 163 255 0 0
0.03538001 0.436892 -0.019914 0.9435173 0.02348422 -0.3304899 163 163 163 255 0 0
0.030419 0.286078 -0.033695 0.4883714 0.01356508 -0.8725305 163 163 163 255 0 0
0.038734 0.286078 -0.022368 0.9497415 0.01273541 -0.3127762 163 163 163 255 0 0
-0.01504701 0.852782 0.026269 -0.2785905 0.009920674 0.9603587 163 163 163 255 0 0
-0.023263 0.852782 0.019979 -0.8966728 0.009877286 0.4425837 163 163 163 255 0 0
-0.01301499 1.099908 0.023964 -0.2670009 0.01139368 0.9636289 163 163 163 255 0 0
-0.02123 1.099908 0.017947 -0.8918712 0.01165317 0.4521395 163 163 163 255 0 0
0.019882 0.852782 0.023166 0.4284683 0.009388293 0.9035081 163 163 163 255 0 0
0.028197 0.852782 0.014648 0.9262649 0.009049986 0.3767646 163 163 163 255 0 0
0.01784999 1.099908 0.021133 0.4148658 0.01069765 0.9098198 163 163 163 255 0 0
0.02616502 1.099908 0.013158 0.9198774 0.01066697 0.392061 163 163 163 255 0 0
0.028197 0.852782 -0.014648 0.926254 0.009050841 -0.3767912 163 163 163 255 0 0
0.019882 0.852782 -0.023165 0.428455 0.009389943 -0.9035144 163 163 163 255 0 0
0.02616502 1.099908 -0.013158 0.9198772 0.0106662 -0.3920615 163 163 163 255 0 0
0.01784999 1.099908 -0.021133 0.4148654 0.01069643 -0.90982 163 163 163 255 0 0
-0.01504701 0.852782 -0.026269 -0.2785776 0.009921742 -0.9603625 163 163 163 255 0 0
-0.023263 0.852782 -0.019979 -0.8966728 0.009877285 -0.4425837 163 163 163 255 0 0
-0.01301499 1.099908 -0.023964 -0.2670002 0.01139382 -0.9636291 163 163 163 255 0 0
-0.02123 1.099908 -0.017947 -0.891871 0.01165371 -0.4521398 163 163 163 255 0 0
-0.009288006 1.525446 0.019739 -0.2438181 0.01527034 0.9697008 163 163 163 255 0 0
-0.017504 1.525446 0.014221 -0.8822931 0.01595704 0.4704298 163 163 163 255 0 0
-0.007553004 1.644974 0.017795 -0.2324903 0.01080817 0.9725387 163 163 163 255 0 0
-0.01576798 1.64501 0.012506 -0.8790984 0.01818702 0.4762934 163 163 163 255 0 0
-0.006272994 1.710185 0.017985 -0.1694105 -0.3870634 0.9063565 163 163 163 255 0 0
-0.01449399 1.710268 0.01268 -0.8220537 -0.4080538 0.3971395 163 163 163 255 0 0
0.014123 1.525446 0.017407 0.3889444 0.01537908 0.9211329 163 163 163 255 0 0
0.02243901 1.525446 0.010426 0.9064348 0.0179104 0.421966 163 163 163 255 0 0
0.012395 1.645 0.015692 0.4034412 0.01215124 0.9149249 163 163 163 255 0 0
0.01982299 1.645007 0.009169 0.9112386 0.02258281 0.4112596 163 163 163 255 0 0
0.01214901 1.710796 0.01577 0.4090533 -0.3841978 0.827688 163 163 163 255 0 0
0.01821799 1.710741 0.009221 0.874718 -0.3630611 0.321022 163 163 163 255 0 0
0.02243901 1.525446 -0.010426 0.9064196 0.01791272 -0.4219984 163 163 163 255 0 0
0.014123 1.525446 -0.017406 0.3889128 0.01538109 -0.9211462 163 163 163 255 0 0
0.01982299 1.645007 -0.009168 0.9112545 0.02257824 -0.4112244 163 163 163 255 0 0
0.012395 1.645 -0.015692 0.4034514 0.01214622 -0.9149205 163 163 163 255 0 0
0.01821799 1.710741 -0.009221 0.8747047 -0.3630656 -0.3210533 163 163 163 255 0 0
0.01214901 1.710796 -0.015769 0.4090242 -0.3841857 -0.827708 163 163 163 255 0 0
-0.017504 1.525446 -0.01422 -0.8822932 0.0159576 -0.4704297 163 163 163 255 0 0
-0.009288006 1.525446 -0.019738 -0.2438181 0.01527149 -0.9697008 163 163 163 255 0 0
-0.007553004 1.644974 -0.017794 -0.2325109 0.01080307 -0.9725338 163 163 163 255 0 0
-0.01576798 1.64501 -0.012505 -0.8790994 0.0181834 -0.4762916 163 163 163 255 0 0
-0.006272994 1.710185 -0.017984 -0.1693768 -0.3870513 -0.9063679 163 163 163 255 0 0
-0.01449399 1.710268 -0.01268 -0.8220248 -0.4079561 -0.3972998 163 163 163 255 0 0
-0.004059993 1.768984 0.019045 -0.2247882 0.02476981 0.9740928 163 163 163 255 0 0
-0.01267599 1.768695 0.013388 -0.8785815 0.05013552 0.4749537 163 163 163 255 0 0
0.015048 1.769893 0.016515 0.5484568 -0.006645727 0.8361525 163 163 163 255 0 0
0.019137 1.770085 0.009582 0.9642844 -0.02728124 0.2634605 163 163 163 255 0 0
0.019137 1.770085 -0.009582 0.9642776 -0.02728226 -0.2634854 163 163 163 255 0 0
0.015048 1.769893 -0.016514 0.5484473 -0.006656133 -0.8361587 163 163 163 255 0 0
-0.004059993 1.768984 -0.019044 -0.2247625 0.02478746 -0.9740983 163 163 163 255 0 0
-0.01267599 1.768695 -0.013388 -0.8785669 0.05014691 -0.4749794 163 163 163 255 0 0
-0.003271006 1.781214 0.01872 -0.2101594 0.08086959 0.9743168 163 163 163 255 0 0
-0.01188999 1.781308 0.013163 -0.8730995 0.06922384 0.4826027 163 163 163 255 0 0
-0.001509987 1.790572 0.017612 -0.1366548 0.124249 0.9827959 163 163 163 255 0 0
-0.01137199 1.791929 0.012502 -0.862797 0.07611783 0.4997874 163 163 163 255 0 0
0.01553199 1.779516 0.016221 0.5233277 -0.01996075 0.8518977 163 163 163 255 0 0
0.01945601 1.779217 0.009407 0.9543169 -0.134651 0.2667365 163 163 163 255 0 0
0.01782099 1.786705 0.015261 0.4513727 -0.1953596 0.8706878 163 163 163 255 0 0
0.02131201 1.785968 0.008839 0.8367534 -0.4926518 0.2390357 163 163 163 255 0 0
0.01945601 1.779217 -0.009406 0.9543298 -0.1346407 -0.2666954 163 163 163 255 0 0
0.01553199 1.779516 -0.016221 0.5233216 -0.01997645 -0.8519012 163 163 163 255 0 0
0.02131201 1.785968 -0.008838 0.8367605 -0.4926555 -0.2390031 163 163 163 255 0 0
0.01782099 1.786705 -0.015261 0.4513701 -0.1953614 -0.8706889 163 163 163 255 0 0
-0.01188999 1.781308 -0.013163 -0.8722436 0.07192866 -0.4837535 163 163 163 255 0 0
-0.003271006 1.781214 -0.01872 -0.2112534 0.08234532 -0.9739565 163 163 163 255 0 0
-0.001511984 1.790572 -0.017611 -0.1427365 0.1271942 -0.9815539 163 163 163 255 0 0
-0.01137199 1.791929 -0.012383 -0.8635666 0.08190103 -0.4975389 163 163 163 255 0 0
-0.0002010092 1.797121 0.016789 -0.07801153 0.2081999 0.9749703 163 163 163 255 0 0
-0.01065399 1.802216 0.012648 -0.7151837 0.4971644 0.4912635 163 163 163 255 0 0
0.003389008 1.80263 0.01543 -0.07882415 0.3132841 0.9463825 163 163 163 255 0 0
-0.002694987 1.805875 0.012553 -0.3184341 0.7948251 0.516578 163 163 163 255 0 0
0.019651 1.788323 0.015221 0.3447656 -0.41519 0.8418753 163 163 163 255 0 0
0.02274001 1.787396 0.00881 0.5863167 -0.7867876 0.1928676 163 163 163 255 0 0
0.02192799 1.789611 0.015172 0.2508102 -0.4994229 0.8292593 163 163 163 255 0 0
0.02475 1.788528 0.008775 0.3966865 -0.9041238 0.158745 163 163 163 255 0 0
0.02274001 1.787396 -0.008809 0.5863207 -0.7867913 -0.1928406 163 163 163 255 0 0
0.019651 1.788323 -0.015221 0.3445422 -0.4147775 -0.84217 163 163 163 255 0 0
0.02475 1.788528 -0.008774 0.3966861 -0.904127 -0.1587281 163 163 163 255 0 0
0.02192799 1.789611 -0.015172 0.2506756 -0.4993444 -0.8293473 163 163 163 255 0 0
-0.01065399 1.802216 -0.012354 -0.7180917 0.5015004 -0.4825369 163 163 163 255 0 0
-0.0002010092 1.797121 -0.016788 -0.08630673 0.2124666 -0.9733495 163 163 163 255 0 0
0.002420999 1.802631 -0.01543 -0.1187983 0.3360459 -0.9343234 163 163 163 255 0 0
-0.002694987 1.805875 -0.012259 -0.3317787 0.8017104 -0.4971754 163 163 163 255 0 0
0.02284399 1.810734 0.015117 -0.08830184 0.3756068 0.9225629 163 163 163 255 0 0
0.02171601 1.813818 0.01194 -0.2401161 0.8891858 0.3894778 163 163 163 255 0 0
0.038858 1.814692 0.014682 -0.04791738 0.4057702 0.9127182 163 163 163 255 0 0
0.03820802 1.817605 0.011502 -0.1556145 0.9175302 0.3659542 163 163 163 255 0 0
0.032459 1.792636 0.0149 0.133101 -0.5769995 0.8058261 163 163 163 255 0 0
0.03354201 1.790828 0.008577 0.1596349 -0.9750841 0.154038 163 163 163 255 0 0
0.0435 1.794549 0.014562 0.1038956 -0.5650308 0.8185022 163 163 163 255 0 0
0.04416 1.79241 0.008332 0.1288292 -0.9764285 0.1731772 163 163 163 255 0 0
0.03354201 1.790828 -0.008577 0.1596428 -0.975082 -0.1540432 163 163 163 255 0 0
0.032459 1.792636 -0.0149 0.1330444 -0.5769824 -0.8058478 163 163 163 255 0 0
0.04416 1.79241 -0.008331 0.1288351 -0.9764286 -0.1731726 163 163 163 255 0 0
0.0435 1.794549 -0.014561 0.1039412 -0.5650434 -0.8184877 163 163 163 255 0 0
0.02171601 1.813818 -0.01194 -0.2400546 0.8891934 -0.3894984 163 163 163 255 0 0
0.02284399 1.810734 -0.015116 -0.08820882 0.3755192 -0.9226075 163 163 163 255 0 0
0.03885601 1.814699 -0.014682 -0.04811055 0.4063462 -0.9124517 163 163 163 255 0 0
0.03820802 1.817605 -0.011502 -0.1557318 0.917707 -0.3654609 163 163 163 255 0 0
0.05739201 1.817032 0.014069 -0.004138485 0.4054446 0.9141102 163 163 163 255 0 0
0.05718201 1.820017 0.010883 -0.06855989 0.9283831 0.3652456 163 163 163 255 0 0
0.09678001 1.821913 0.009476 -0.0116343 0.925446 0.3787009 163 163 163 255 0 0
0.09696601 1.818731 0.012663 0.01863697 0.3885013 0.9212597 163 163 163 255 0 0
0.05921301 1.796389 0.014033 0.07932102 -0.5520289 0.8300436 163 163 163 255 0 0
0.05961501 1.793942 0.007945 0.09071973 -0.9766832 0.1945765 163 163 163 255 0 0
0.098046 1.799563 0.012664 0.06056733 -0.519228 0.8524869 163 163 163 255 0 0
0.09815801 1.796623 0.00695 0.06754383 -0.968991 0.2376852 163 163 163 255 0 0
0.05961501 1.793942 -0.007945 0.09071447 -0.9766772 -0.1946085 163 163 163 255 0 0
0.05921301 1.796389 -0.014032 0.07931398 -0.552009 -0.8300574 163 163 163 255 0 0
0.098046 1.799563 -0.012663 0.06055009 -0.519226 -0.8524894 163 163 163 255 0 0
0.09815801 1.796623 -0.006949 0.06754075 -0.9689928 -0.2376789 163 163 163 255 0 0
0.05718201 1.820017 -0.010882 -0.06849272 0.928406 -0.3652002 163 163 163 255 0 0
0.05739201 1.817032 -0.014068 -0.004034807 0.4054075 -0.9141272 163 163 163 255 0 0
0.09696601 1.818731 -0.012662 0.01863697 0.3885013 -0.9212597 163 163 163 255 0 0
0.09678001 1.821913 -0.009475 -0.0116343 0.925446 -0.3787009 163 163 163 255 0 0
0.111492 1.821959 0.009118 8.635682e-05 0.9244972 0.3811889 163 163 163 255 0 0
0.111677 1.818778 0.012305 0.01394231 0.3833701 0.9234896 163 163 163 255 0 0
0.112783 1.800575 0.012304 0.03814908 -0.5012085 0.8644852 163 163 163 255 0 0
0.112864 1.797389 0.006686 0.04621 -0.9658498 0.2549488 163 163 163 255 0 0
0.112864 1.797389 -0.006685 0.04621183 -0.9658595 -0.2549116 163 163 163 255 0 0
0.112783 1.800575 -0.012304 0.03812121 -0.5012137 -0.8644835 163 163 163 255 0 0
0.111677 1.818778 -0.012304 0.01392538 0.3833913 -0.923481 163 163 163 255 0 0
0.111492 1.821959 -0.009117 8.635714e-05 0.9244972 -0.3811889 163 163 163 255 0 0
0.249381 1.816374 0.008648 0.07527608 0.9212965 0.3815054 163 163 163 255 0 0
0.249122 1.813198 0.011834 0.03139136 0.3843645 0.9226475 163 163 163 255 0 0
0.209179 1.815897 0.011834 0.02349965 0.3848703 0.9226714 163 163 163 255 0 0
0.209047 1.819088 0.008641 0.05484395 0.9230271 0.380806 163 163 163 255 0 0
0.248483 1.795911 0.011834 -0.04141311 -0.4944724 0.8682062 163 163 163 255 0 0
0.248217 1.792736 0.00634 -0.08058373 -0.9621699 0.26026 163 163 163 255 0 0
0.210218 1.798639 0.011834 -0.02954743 -0.4957556 0.8679593 163 163 163 255 0 0
0.210024 1.795459 0.00634 -0.05813051 -0.9638275 0.2601106 163 163 163 255 0 0
0.248483 1.795911 -0.011833 -0.04141026 -0.4944384 -0.8682258 163 163 163 255 0 0
0.248217 1.792736 -0.00634 -0.08058286 -0.9621597 -0.2602983 163 163 163 255 0 0
0.210024 1.795459 -0.00634 -0.05812867 -0.9638176 -0.2601476 163 163 163 255 0 0
0.210218 1.798639 -0.011833 -0.02953892 -0.4957225 -0.8679785 163 163 163 255 0 0
0.249122 1.813198 -0.011833 0.03139559 0.3843617 -0.9226486 163 163 163 255 0 0
0.249381 1.816374 -0.008647 0.07528085 0.9212971 -0.3815029 163 163 163 255 0 0
0.209047 1.819088 -0.008641 0.05484543 0.922998 -0.3808763 163 163 163 255 0 0
0.209179 1.815897 -0.011833 0.02350284 0.3847988 -0.9227012 163 163 163 255 0 0
0.300829 1.811423 0.008648 0.101438 0.9187877 0.3814964 163 163 163 255 0 0
0.300479 1.808256 0.011834 0.04231622 0.3832468 0.9226761 163 163 163 255 0 0
0.300014 1.790952 0.011834 -0.05440532 -0.4928012 0.8684395 163 163 163 255 0 0
0.299664 1.787785 0.00634 -0.1059596 -0.9596853 0.2603397 163 163 163 255 0 0
0.300014 1.790952 -0.011833 -0.05440491 -0.4927706 -0.8684568 163 163 163 255 0 0
0.299664 1.787785 -0.00634 -0.1059563 -0.9596749 -0.2603793 163 163 163 255 0 0
0.300479 1.808256 -0.011833 0.04231312 0.3832491 -0.9226754 163 163 163 255 0 0
0.300829 1.811423 -0.008647 0.101438 0.9187877 -0.3814965 163 163 163 255 0 0
0.361735 1.800622 0.011834 0.05625823 0.3823894 0.922287 163 163 163 255 0 0
0.362186 1.803777 0.008648 0.1323664 0.9148958 0.3813723 163 163 163 255 0 0
0.361472 1.783293 0.011833 -0.06828656 -0.4900537 0.8690135 163 163 163 255 0 0
0.361021 1.780138 0.00634 -0.1351775 -0.9559019 0.2607274 163 163 163 255 0 0
0.361021 1.780138 -0.006339 -0.1352565 -0.9559107 -0.2606539 163 163 163 255 0 0
0.361472 1.783293 -0.011833 -0.06834789 -0.490021 -0.8690271 163 163 163 255 0 0
0.361735 1.800622 -0.011833 0.0562562 0.3824143 -0.9222769 163 163 163 255 0 0
0.362186 1.803777 -0.008647 0.1323628 0.9148972 -0.3813702 163 163 163 255 0 0
0.440596 1.782604 0.006029 -0.7228704 0.2246712 0.653438 163 163 163 255 0 0
0.44071 1.785629 0.004831 -0.7656714 0.5325532 0.3607415 163 163 163 255 0 0
0.441798 1.788494 0.012267 -0.7690951 0.1783349 0.6137503 163 163 163 255 0 0
0.442301 1.792169 0.011202 -0.67286 0.6303735 0.3871545 163 163 163 255 0 0
0.439599 1.776064 0.006022 -0.837005 -0.1178079 0.5343631 163 163 163 255 0 0
0.438946 1.773126 0.002295 -0.8569632 -0.4574439 0.2374007 163 163 163 255 0 0
0.438846 1.769659 0.012262 -0.7926789 -0.1753643 0.5838729 163 163 163 255 0 0
0.438234 1.766111 0.00666 -0.8549379 -0.4883542 0.1749037 163 163 163 255 0 0
0.605978 1.738589 0.016825 0.7754802 -0.5683614 0.2749469 163 163 163 255 0 0
0.603467 1.732767 0.007473 0.6693753 -0.741188 0.05076442 163 163 163 255 0 0
0.602439 1.737783 0.021612 0.6242266 -0.5398206 0.5647432 163 163 163 255 0 0
0.600215 1.731738 0.012604 0.4384291 -0.8738429 0.2101871 163 163 163 255 0 0
0.458614 1.755242 0.011522 -0.4489322 -0.8639124 0.2282876 163 163 163 255 0 0
0.459142 1.759292 0.019067 -0.4291682 -0.4315287 0.7934719 163 163 163 255 0 0
0.482192 1.750763 0.026442 -0.3359951 -0.4817083 0.8093605 163 163 163 255 0 0
0.481727 1.746194 0.016345 -0.3291914 -0.9204982 0.2105141 163 163 163 255 0 0
0.516544 1.742378 0.033064 -0.1871807 -0.5263022 0.8294392 163 163 163 255 0 0
0.516078 1.737811 0.020674 -0.2183585 -0.9584109 0.1837609 163 163 163 255 0 0
0.619578 1.759789 0.013023 0.9713832 -0.2137806 0.1035014 163 163 163 255 0 0
0.617236 1.756497 0.016495 0.8395174 -0.4382373 0.3211831 163 163 163 255 0 0
0.61613 1.760723 0.020876 0.6833501 -0.1400146 0.7165393 163 163 163 255 0 0
0.618664 1.764528 0.017749 0.8880458 0.2994916 0.3488258 163 163 163 255 0 0
0.464862 1.794361 0.019077 -0.292577 0.1258712 0.9479215 163 163 163 255 0 0
0.465721 1.799226 0.018474 -0.2929409 0.752986 0.5892349 163 163 163 255 0 0
0.488791 1.793036 0.025506 -0.184028 0.2039578 0.9615274 163 163 163 255 0 0
0.490041 1.80084 0.022717 -0.05744231 0.8351003 0.5470905 163 163 163 255 0 0
0.52277 1.789325 0.03122 -0.007249323 0.3585826 0.9334699 163 163 163 255 0 0
0.524025 1.796435 0.025055 0.1176567 0.8971048 0.4258637 163 163 163 255 0 0
0.438823 1.773152 -0.002298 -0.855102 -0.4796015 -0.1969339 163 163 163 255 0 0
0.439177 1.776131 -0.00602 -0.8251735 -0.1518582 -0.5440843 163 163 163 255 0 0
0.438175 1.765813 -0.006664 -0.8369735 -0.51433 -0.1869223 163 163 163 255 0 0
0.43892 1.769875 -0.012217 -0.7807655 -0.1725292 -0.6005323 163 163 163 255 0 0
0.605932 1.738474 -0.016848 0.7754812 -0.5690538 -0.2735082 163 163 163 255 0 0
0.60348 1.732765 -0.007538 0.6694825 -0.7411317 -0.0501695 163 163 163 255 0 0
0.600215 1.731738 -0.012623 0.4369302 -0.8753954 -0.2068208 163 163 163 255 0 0
0.602355 1.737624 -0.021674 0.6228607 -0.5440425 -0.5621943 163 163 163 255 0 0
0.459068 1.759322 -0.019048 -0.4298292 -0.4329337 -0.792348 163 163 163 255 0 0
0.458614 1.755242 -0.011522 -0.4487228 -0.8640675 -0.2281125 163 163 163 255 0 0
0.481727 1.746194 -0.016353 -0.3292455 -0.9204527 -0.2106283 163 163 163 255 0 0
0.482193 1.750766 -0.02645 -0.335057 -0.4812973 -0.8099937 163 163 163 255 0 0
0.516079 1.737811 -0.020691 -0.2181588 -0.9584112 -0.1839968 163 163 163 255 0 0
0.516544 1.742383 -0.033082 -0.1840839 -0.5209748 -0.8334857 163 163 163 255 0 0
0.440475 1.785695 -0.004425 -0.7432676 0.6120075 -0.2701853 163 163 163 255 0 0
0.439978 1.782676 -0.006021 -0.7062786 0.2640469 -0.6568484 163 163 163 255 0 0
0.441434 1.788394 -0.012203 -0.7543333 0.2100122 -0.6219937 163 163 163 255 0 0
0.442002 1.792225 -0.010568 -0.6730801 0.6604906 -0.332739 163 163 163 255 0 0
0.61958 1.75982 -0.012853 0.9723389 -0.2129752 -0.09590969 163 163 163 255 0 0
0.617246 1.756561 -0.016544 0.8411874 -0.4354994 -0.3205371 163 163 163 255 0 0
0.61614 1.760846 -0.020972 0.6867037 -0.1453445 -0.7122591 163 163 163 255 0 0
0.618655 1.764554 -0.017815 0.8932503 0.2963138 -0.3380859 163 163 163 255 0 0
0.465122 1.799235 -0.017691 -0.2833589 0.7883722 -0.5460558 163 163 163 255 0 0
0.464062 1.794002 -0.019006 -0.296943 0.1932174 -0.9351427 163 163 163 255 0 0
0.487825 1.792253 -0.025239 -0.1735923 0.2168436 -0.960648 163 163 163 255 0 0
0.48935 1.800778 -0.022074 -0.05288984 0.8348616 -0.5479133 163 163 163 255 0 0
0.521736 1.787116 -0.030507 -0.03567859 0.2565365 -0.9658759 163 163 163 255 0 0
0.523354 1.796225 -0.025918 0.08640498 0.837532 -0.5395131 163 163 163 255 0 0
-0.02540999 0.158221 0.037912 -0.3298908 -0.01262254 0.9439347 163 163 163 255 0 0
-0.03362598 0.158223 0.030247 -0.9165669 -0.01195375 0.3997027 163 163 163 255 0 0
-0.02560001 0.286077 0.038208 -0.3312252 0.01360844 0.9434536 163 163 163 255 0 0
-0.033816 0.286078 0.030509 -0.9168134 0.01348583 0.3990882 163 163 163 255 0 0
0.03017799 0.158223 0.033433 0.4866829 -0.01228153 0.8734924 163 163 163 255 0 0
0.03849301 0.158223 0.022176 0.9494733 -0.01133326 0.3136433 163 163 163 255 0 0
0.030419 0.286078 0.033695 0.4883714 0.01356508 0.8725305 163 163 163 255 0 0
0.038734 0.286078 0.022368 0.9497415 0.01273541 0.3127762 163 163 163 255 0 0
0.036988 0.065606 -0.02105 0.946882 -0.01589213 -0.3211884 163 163 163 255 0 0
0.028673 0.065606 -0.031897 0.4784229 -0.01745286 -0.8779561 163 163 163 255 0 0
0.036548 0.020809 -0.020693 0.931418 -0.1505765 -0.3313415 163 163 163 255 0 0
0.02824301 0.020809 -0.031422 0.4781521 -0.1654915 -0.8625445 163 163 163 255 0 0
0.025367 0.009197 -0.028439 0.2974124 -0.7452756 -0.5967498 163 163 163 255 0 0
0.033678 0.009197 -0.018512 0.6357951 -0.7410287 -0.2159655 163 163 163 255 0 0
-0.023954 0.065606 -0.03617 -0.3220263 -0.01833692 -0.9465532 163 163 163 255 0 0
-0.03216901 0.065606 -0.028711 -0.9143515 -0.01732652 -0.4045506 163 163 163 255 0 0
-0.03174 0.020809 -0.028234 -0.8965854 -0.1588857 -0.4133885 163 163 163 255 0 0
-0.02352601 0.020809 -0.035631 -0.3251606 -0.1672777 -0.9307464 163 163 163 255 0 0
-0.02072199 0.009197 -0.032249 -0.1801827 -0.7501861 -0.6362035 163 163 163 255 0 0
-0.028932 0.009197 -0.025247 -0.6240803 -0.738619 -0.2548839 163 163 163 255 0 0
0.02706502 0.436892 0.030348 0.4710567 0.02513785 0.8817447 163 163 163 255 0 0
0.03538001 0.436892 0.019914 0.9435173 0.02348422 0.3304899 163 163 163 255 0 0
-0.02222999 0.436892 0.034414 -0.3143136 0.02635052 0.9489534 163 163 163 255 0 0
-0.030445 0.436892 0.027162 -0.9115004 0.02576642 0.4104913 163 163 163 255 0 0
0.03017799 0.158223 -0.033433 0.4866675 -0.0123716 -0.8734997 163 163 163 255 0 0
0.03849301 0.158223 -0.022176 0.9494672 -0.01136309 -0.3136604 163 163 163 255 0 0
-0.02540999 0.158221 -0.037912 -0.3298813 -0.01272877 -0.9439366 163 163 163 255 0 0
-0.03362598 0.158223 -0.030247 -0.9165561 -0.01199873 -0.3997263 163 163 163 255 0 0
0.02803699 1.791625 0.015021 0.1821564 -0.5622493 0.8066565 163 163 163 255 0 0
0.02963001 1.790193 0.008663 0.2448751 -0.9586094 0.1452731 163 163 163 255 0 0
0.01608301 1.8083 0.015257 -0.1170025 0.3446219 0.9314216 163 163 163 255 0 0
0.01444701 1.811489 0.012085 -0.2875259 0.8614367 0.4186357 163 163 163 255 0 0
0.02963001 1.790193 -0.008663 0.2448563 -0.9586113 -0.1452922 163 163 163 255 0 0
0.02803699 1.791625 -0.01502 0.1821161 -0.5622816 -0.8066432 163 163 163 255 0 0
0.01608 1.808303 -0.015256 -0.1121264 0.3441855 -0.9321824 163 163 163 255 0 0
0.01444701 1.811489 -0.012085 -0.2856173 0.8633911 -0.415907 163 163 163 255 0 0
0.146741 1.801789 0.011899 0.001731604 -0.4899773 0.8717335 163 163 163 255 0 0
0.146719 1.798599 0.006388 -0.005421409 -0.9654625 0.2604859 163 163 163 255 0 0
0.145336 1.822358 0.008715 0.02073181 0.925231 0.3788374 163 163 163 255 0 0
0.145273 1.819172 0.011902 0.01388166 0.389744 0.9208186 163 163 163 255 0 0
0.146719 1.7986 -0.006388 -0.005421309 -0.965461 -0.2604914 163 163 163 255 0 0
0.146741 1.801789 -0.011899 0.001735272 -0.4900275 -0.8717053 163 163 163 255 0 0
0.145273 1.819172 -0.011902 0.01387535 0.3898166 -0.920788 163 163 163 255 0 0
0.145336 1.822358 -0.008714 0.02072395 0.9252598 -0.3787674 163 163 163 255 0 0
0.406669 1.776122 0.011714 0.580569 -0.4492517 0.6790527 163 163 163 255 0 0
0.406477 1.772925 0.006255 0.587559 -0.7842635 0.1992619 163 163 163 255 0 0
0.407674 1.796325 0.008533 0.7023023 0.6479696 0.2947997 163 163 163 255 0 0
0.407515 1.793127 0.011714 0.6623915 0.2385677 0.710157 163 163 163 255 0 0
0.406392 1.772926 -0.006255 0.5819561 -0.7883688 -0.1995035 163 163 163 255 0 0
0.406669 1.776123 -0.011714 0.5828326 -0.4507544 -0.6761114 163 163 163 255 0 0
0.407515 1.793127 -0.011714 0.6623726 0.2386239 -0.7101557 163 163 163 255 0 0
0.407674 1.796325 -0.008532 0.7023143 0.647985 -0.2947372 163 163 163 255 0 0
0.40659 1.781603 0.005888 0.8167602 -0.297013 0.4946576 163 163 163 255 0 0
0.40657 1.778424 0.001982 0.7329342 -0.6426751 0.2231058 163 163 163 255 0 0
0.407125 1.787011 0.005888 0.8265926 0.1790202 0.5335695 163 163 163 255 0 0
0.40744 1.790184 0.002703 0.8449943 0.4849058 0.2255019 163 163 163 255 0 0
0.406511 1.778424 -0.001981 0.7371511 -0.6352574 -0.2303395 163 163 163 255 0 0
0.40659 1.781603 -0.005887 0.8157727 -0.302157 -0.4931695 163 163 163 255 0 0
0.407125 1.787008 -0.005887 0.8265982 0.1790182 -0.5335615 163 163 163 255 0 0
0.40744 1.790184 -0.0027 0.8450817 0.484744 -0.2255222 163 163 163 255 0 0
0.552676 1.73617 0.033433 -0.05421362 -0.5459525 0.8360602 163 163 163 255 0 0
0.552164 1.731423 0.020945 -0.1370571 -0.9734793 0.1831762 163 163 163 255 0 0
0.578628 1.732947 0.031554 0.1085176 -0.5705541 0.814059 163 163 163 255 0 0
0.577707 1.728495 0.01957 0.006358879 -0.9835679 0.1804269 163 163 163 255 0 0
0.559265 1.782386 0.031326 0.1208568 0.3469377 0.9300688 163 163 163 255 0 0
0.560827 1.790794 0.024518 0.2388083 0.8728305 0.4256026 163 163 163 255 0 0
0.593001 1.778838 0.023099 0.362136 0.8180829 0.4467637 163 163 163 255 0 0
0.590092 1.771396 0.029258 0.2223772 0.2820695 0.9332659 163 163 163 255 0 0
0.552155 1.731447 -0.020963 -0.137049 -0.973404 -0.1835819 163 163 163 255 0 0
0.552613 1.736201 -0.033453 -0.05488399 -0.5409135 -0.8392857 163 163 163 255 0 0
0.577685 1.728505 -0.019588 0.004957897 -0.9835419 -0.1806124 163 163 163 255 0 0
0.578578 1.732963 -0.031577 0.1076302 -0.5666443 -0.8169028 163 163 163 255 0 0
0.558243 1.781274 -0.031022 0.09230348 0.27899 -0.9558476 163 163 163 255 0 0
0.560274 1.790809 -0.02537 0.2270201 0.8422509 -0.4889533 163 163 163 255 0 0
0.589419 1.771249 -0.029085 0.2015293 0.2588891 -0.9446494 163 163 163 255 0 0
0.59261 1.778874 -0.02344 0.3546383 0.8083289 -0.4699322 163 163 163 255 0 0
0.447491 1.765183 0.01543 -0.4618033 -0.3862403 0.7984712 163 163 163 255 0 0
0.446992 1.761556 0.008969 -0.5065075 -0.8281702 0.2399677 163 163 163 255 0 0
0.451586 1.79181 0.015338 -0.3240077 0.2594544 0.9097815 163 163 163 255 0 0
0.45215 1.794447 0.014084 -0.3603901 0.7952221 0.4875867 163 163 163 255 0 0
0.608188 1.765299 0.0257 0.3778499 0.128428 0.9169164 163 163 163 255 0 0
0.612412 1.77062 0.021513 0.5702111 0.6570286 0.4931256 163 163 163 255 0 0
0.593468 1.733682 0.027346 0.3922661 -0.5898406 0.7058437 163 163 163 255 0 0
0.592333 1.729784 0.016487 0.2501722 -0.9509144 0.1821418 163 163 163 255 0 0
0.446992 1.761556 -0.008972 -0.5047078 -0.8282655 -0.2434058 163 163 163 255 0 0
0.44743 1.765205 -0.015423 -0.4686136 -0.3868604 -0.7941917 163 163 163 255 0 0
0.592316 1.72976 -0.016505 0.2479101 -0.9518579 -0.1802974 163 163 163 255 0 0
0.593434 1.73364 -0.027372 0.3877437 -0.5890595 -0.708988 163 163 163 255 0 0
0.450995 1.791518 -0.015243 -0.3325963 0.3178396 -0.8878951 163 163 163 255 0 0
0.451689 1.794468 -0.013315 -0.3514329 0.8327569 -0.4277978 163 163 163 255 0 0
0.608299 1.765531 -0.025833 0.3678991 0.1226677 -0.921739 163 163 163 255 0 0
0.61244 1.770609 -0.021919 0.5721231 0.6492266 -0.5011786 163 163 163 255 0 0
-0.005791001 1.738873 0.019131 -0.2355554 0.01761917 0.9717012 163 163 163 255 0 0
-0.014144 1.73883 0.013454 -0.8819478 0.04997778 0.4686902 163 163 163 255 0 0
0.01880399 1.740481 0.009678 0.953535 0.00381344 0.301258 163 163 163 255 0 0
0.01379699 1.740381 0.016647 0.5048102 -0.004965547 0.8632162 163 163 163 255 0 0
0.01379699 1.740381 -0.016647 0.5048101 -0.004965548 -0.8632162 163 163 163 255 0 0
0.01880399 1.740481 -0.009678 0.9535351 0.003813439 -0.301258 163 163 163 255 0 0
-0.014144 1.73883 -0.013454 -0.8819457 0.04996843 -0.4686949 163 163 163 255 0 0
-0.005791001 1.738873 -0.019131 -0.2355596 0.01760678 -0.9717004 163 163 163 255 0 0
-0.004434012 1.758499 0.019082 -0.219448 0.01519827 0.9755058 163 163 163 255 0 0
-0.01311999 1.758252 0.013415 -0.878821 0.04495597 0.4750291 163 163 163 255 0 0
0.01477901 1.759511 0.016557 0.5493167 -0.009237495 0.8355632 163 163 163 255 0 0
0.018874 1.759687 0.00961 0.9645793 -0.0131998 0.2634625 163 163 163 255 0 0
0.018874 1.759687 -0.00961 0.9645776 -0.01319219 -0.2634693 163 163 163 255 0 0
0.01477901 1.759511 -0.016557 0.5493096 -0.00919624 -0.8355684 163 163 163 255 0 0
-0.004434012 1.758499 -0.019082 -0.2194368 0.01523256 -0.9755078 163 163 163 255 0 0
-0.01311999 1.758252 -0.013415 -0.878821 0.04495597 -0.4750291 163 163 163 255 0 0
-0.006871991 1.712565 0.01936 -0.223022 -0.1941359 0.9552866 163 163 163 255 0 0
-0.006734006 1.710977 0.018654 -0.2006202 -0.5469084 0.8127993 163 163 163 255 0 0
-0.015049 1.711057 0.013272 -0.7248589 -0.5542613 0.4091137 163 163 163 255 0 0
-0.01572298 1.712655 0.013649 -0.8652502 -0.1816833 0.4672616 163 163 163 255 0 0
0.019449 1.713128 0.009923 0.9150299 -0.1985848 0.3511187 163 163 163 255 0 0
0.018773 1.711532 0.009654 0.7873349 -0.5256447 0.3221822 163 163 163 255 0 0
0.01260201 1.711586 0.016321 0.3957275 -0.5341635 0.7470403 163 163 163 255 0 0
0.012958 1.713173 0.016972 0.4453293 -0.2070408 0.8711004 163 163 163 255 0 0
0.012958 1.713173 -0.016972 0.445265 -0.2072383 -0.8710864 163 163 163 255 0 0
0.01260201 1.711586 -0.01632 0.3956591 -0.5343708 -0.7469283 163 163 163 255 0 0
0.018773 1.711532 -0.009654 0.7873238 -0.5256547 -0.322193 163 163 163 255 0 0
0.019449 1.713128 -0.009923 0.9150299 -0.1985848 -0.3511187 163 163 163 255 0 0
-0.01572298 1.712655 -0.013648 -0.8652514 -0.1816918 -0.4672559 163 163 163 255 0 0
-0.015049 1.711057 -0.013271 -0.7249481 -0.5541426 -0.4091164 163 163 163 255 0 0
-0.006734006 1.710977 -0.018653 -0.2006101 -0.5468975 -0.8128092 163 163 163 255 0 0
-0.006871991 1.712565 -0.019359 -0.2230345 -0.1941609 -0.9552786 163 163 163 255 0 0
-0.02456798 0.620376 -0.021584 -0.5521637 0.7930093 -0.2573941 163 163 163 255 0 0
-0.01678001 0.620376 -0.0279 -0.1781249 0.7738528 -0.6078022 163 163 163 255 0 0
0.02162001 0.620376 -0.024604 0.2795622 0.7729 -0.5696231 163 163 163 255 0 0
0.029503 0.620376 -0.015824 0.5966235 0.7702022 -0.2254529 163 163 163 255 0 0
-0.01678001 0.620376 0.0279 -0.1777537 0.7764685 0.6045663 163 163 163 255 0 0
-0.02456798 0.620376 0.021584 -0.5522622 0.7930919 0.2569276 163 163 163 255 0 0
0.02162001 0.620376 0.024604 0.2795687 0.7728818 0.5696447 163 163 163 255 0 0
0.029503 0.620376 0.015824 0.5964102 0.7703822 0.2254023 163 163 163 255 0 0
-0.02620801 0.62024 -0.0229 -0.4572893 0.8695052 -0.186674 163 163 163 255 0 0
-0.02767899 0.618389 -0.02409 -0.8374423 0.3605291 -0.4107421 163 163 163 255 0 0
-0.02634098 0.620229 0.023008 -0.4775214 0.8566246 0.1953657 163 163 163 255 0 0
-0.02767899 0.618389 0.02409 -0.8437592 0.3428737 0.4129262 163 163 163 255 0 0
-0.01819899 0.620232 -0.029563 -0.13283 0.8665012 -0.4811778 163 163 163 255 0 0
-0.01902699 0.618382 -0.031122 -0.2835764 0.3535683 -0.8913887 163 163 163 255 0 0
0.022723 0.620248 -0.026011 0.1982807 0.8727947 -0.445998 163 163 163 255 0 0
0.02385599 0.618417 -0.027445 0.4240578 0.358854 -0.8315039 163 163 163 255 0 0
0.03114501 0.620239 -0.016791 0.4705131 0.867004 -0.1640774 163 163 163 255 0 0
0.03261302 0.618426 -0.017661 0.8727145 0.3492568 -0.3411587 163 163 163 255 0 0
0.031059 0.620247 0.016741 0.4581202 0.8744414 0.1596187 163 163 163 255 0 0
0.03261302 0.618426 0.017661 0.8689315 0.3596247 0.3400413 163 163 163 255 0 0
-0.01821499 0.620242 0.029594 -0.1301591 0.8670551 0.4809097 163 163 163 255 0 0
-0.019026 0.618416 0.031121 -0.2827874 0.3506403 0.8927948 163 163 163 255 0 0
0.02280001 0.620239 0.026109 0.2098375 0.8631445 0.4592929 163 163 163 255 0 0
0.02385599 0.618417 0.027445 0.4280627 0.3474917 0.8342733 163 163 163 255 0 0
3 191 218 190 
3 246 6 0 
3 1 2 3 
3 3 4 5 
3 4 229 5 
3 6 8 9 
3 9 11 10 
3 10 233 232 
3 13 14 15 
3 15 254 255 
3 16 19 18 
3 19 252 18 
3 20 23 21 
3 22 37 23 
3 24 27 26 
3 26 43 42 
3 29 30 28 
3 31 48 30 
3 32 35 34 
3 34 54 55 
3 36 39 37 
3 38 41 39 
3 42 45 44 
3 44 47 46 
3 49 50 48 
3 51 52 50 
3 55 57 56 
3 56 59 58 
3 329 320 328 
3 60 69 61 
3 63 72 62 
3 330 322 331 
3 64 77 76 
3 333 325 324 
3 66 80 81 
3 335 327 326 
3 68 71 69 
3 70 85 71 
3 73 74 72 
3 75 88 74 
3 76 79 78 
3 78 93 92 
3 81 83 82 
3 82 96 97 
3 84 87 85 
3 86 259 87 
3 89 90 88 
3 91 256 90 
3 92 95 94 
3 94 261 260 
3 97 99 98 
3 98 263 262 
3 101 258 100 
3 100 103 101 
3 102 117 103 
3 105 106 104 
3 104 257 105 
3 107 120 106 
3 108 111 110 
3 109 260 261 
3 110 125 124 
3 112 262 263 
3 113 115 114 
3 114 128 129 
3 116 118 117 
3 119 132 118 
3 121 122 120 
3 123 134 122 
3 124 126 127 
3 127 137 136 
3 129 131 130 
3 130 139 138 
3 133 266 132 
3 135 264 134 
3 136 269 268 
3 138 271 270 
3 140 157 156 
3 141 143 142 
3 143 267 142 
3 144 159 158 
3 145 146 147 
3 147 264 265 
3 149 151 148 
3 148 161 149 
3 150 269 151 
3 153 162 152 
3 152 154 153 
3 154 270 271 
3 156 164 165 
3 158 167 166 
3 160 168 161 
3 163 170 162 
3 165 275 274 
3 166 273 272 
3 169 276 168 
3 171 278 170 
3 283 172 173 
3 280 177 176 
3 285 200 284 
3 287 215 286 
3 175 306 307 
3 178 305 304 
3 180 183 181 
3 182 311 183 
3 184 304 305 
3 185 187 186 
3 186 189 188 
3 188 289 288 
3 191 193 192 
3 192 309 308 
3 194 307 306 
3 195 196 197 
3 197 198 199 
3 199 292 293 
3 203 312 202 
3 204 206 207 
3 207 314 315 
3 209 313 208 
3 208 210 209 
3 211 212 210 
3 213 296 212 
3 217 316 216 
3 219 221 218 
3 220 319 221 
3 223 317 222 
3 222 224 223 
3 225 226 224 
3 227 300 226 
3 228 231 229 
3 230 251 231 
3 232 235 234 
3 235 248 234 
3 237 253 236 
3 236 239 237 
3 238 240 239 
3 242 255 254 
3 243 245 244 
3 245 247 244 
3 273 280 272 
3 274 282 283 
3 276 285 284 
3 279 286 278 
3 289 290 288 
3 291 310 290 
3 293 295 294 
3 294 308 309 
3 296 299 298 
3 298 315 314 
3 301 302 300 
3 303 318 302 
3 4 232 228 
3 233 236 253 
3 243 229 255 
3 29 34 31 
3 38 42 44 
3 43 50 45 
3 51 58 53 
3 49 56 51 
3 57 37 39 
3 334 324 327 
3 82 77 81 
3 86 88 90 
3 91 92 94 
3 93 98 95 
3 96 87 99 
3 114 109 113 
3 125 130 126 
3 126 138 137 
3 151 152 148 
3 160 152 162 
3 169 162 170 
3 282 176 172 
3 194 186 196 
3 187 209 210 
3 213 224 226 
3 211 223 224 
3 225 195 197 
3 180 192 182 
3 0 9 2 
3 10 2 9 
3 8 241 238 
3 11 238 236 
3 246 239 240 
3 245 237 239 
3 247 3 244 
3 5 244 3 
3 232 230 228 
3 234 250 230 
3 12 18 14 
3 14 252 254 
3 252 242 254 
3 253 235 233 
3 249 19 17 
3 255 231 15 
3 13 231 251 
3 24 22 20 
3 26 36 22 
3 28 27 25 
3 43 30 48 
3 55 31 34 
3 21 35 33 
3 35 37 54 
3 44 40 38 
3 50 47 45 
3 39 59 57 
3 323 328 320 
3 62 68 60 
3 322 332 331 
3 76 63 64 
3 81 65 66 
3 326 329 335 
3 61 80 67 
3 72 70 68 
3 74 84 70 
3 76 75 73 
3 92 75 78 
3 97 79 82 
3 69 83 80 
3 71 96 83 
3 90 258 86 
3 256 100 258 
3 108 257 260 
3 257 94 260 
3 113 261 262 
3 262 95 98 
3 259 99 87 
3 104 102 100 
3 106 116 102 
3 105 110 107 
3 110 121 107 
3 129 111 114 
3 112 103 115 
3 103 128 115 
3 120 119 116 
3 121 127 123 
3 128 118 131 
3 122 133 119 
3 127 135 123 
3 118 139 131 
3 134 267 133 
3 135 268 265 
3 137 270 269 
3 139 266 271 
3 264 142 267 
3 147 268 150 
3 155 269 270 
3 271 143 154 
3 146 141 142 
3 150 145 147 
3 154 140 153 
3 141 158 157 
3 149 159 145 
3 153 156 163 
3 157 166 164 
3 272 164 166 
3 161 167 159 
3 276 167 168 
3 170 277 169 
3 156 171 163 
3 274 171 165 
3 272 282 275 
3 284 273 276 
3 286 277 278 
3 287 274 283 
3 200 281 284 
3 286 201 285 
3 283 214 287 
3 196 188 198 
3 198 288 292 
3 290 292 288 
3 210 189 187 
3 298 289 296 
3 296 189 212 
3 300 299 297 
3 297 226 300 
3 225 199 227 
3 293 303 301 
3 301 199 293 
3 174 304 306 
3 185 306 304 
3 295 310 308 
3 308 182 192 
3 209 305 312 
3 312 179 202 
3 206 181 183 
3 291 314 311 
3 314 183 311 
3 316 208 313 
3 313 216 316 
3 220 204 207 
3 207 318 220 
3 315 302 318 
3 307 222 317 
3 317 175 307 
3 193 218 221 
3 319 294 309 
3 309 221 319 
3 112 259 101 
3 215 217 216 
3 172 175 173 
3 176 179 178 
3 201 202 200 
3 203 215 216 
3 200 179 177 
3 172 178 174 
3 173 217 214 
3 61 328 60 
3 62 331 63 
3 65 332 333 
3 67 334 335 
3 66 333 334 
3 60 330 62 
3 63 332 64 
3 61 335 329 
3 336 342 343 
3 336 338 337 
3 339 349 338 
3 340 346 347 
3 341 343 342 
3 345 351 344 
3 344 346 345 
3 349 351 350 
3 336 321 339 
3 340 323 343 
3 347 324 325 
3 351 326 327 
3 343 320 336 
3 340 325 322 
3 327 344 351 
3 348 321 326 
3 41 337 338 
3 46 341 342 
3 53 346 52 
3 59 350 58 
3 40 342 337 
3 52 341 47 
3 58 345 53 
3 59 338 349 
3 353 33 32 
3 354 28 355 
3 356 21 357 
3 358 25 24 
3 20 358 24 
3 359 28 25 
3 354 32 29 
3 352 21 33 
3 361 362 360 
3 360 365 361 
3 362 373 372 
3 365 366 367 
3 367 368 369 
3 368 371 369 
3 370 375 371 
3 373 374 372 
3 360 357 352 
3 352 364 360 
3 353 366 364 
3 366 355 368 
3 355 370 368 
3 356 374 358 
3 372 357 362 
3 374 359 358 
3 361 12 13 
3 367 17 16 
3 363 250 373 
3 375 249 371 
3 365 16 12 
3 248 373 250 
3 369 249 17 
3 363 13 251 
3 205 180 181 
3 204 191 180 
3 240 7 6 
3 246 1 247 
3 191 219 218 
3 246 240 6 
3 1 0 2 
3 3 2 4 
3 4 228 229 
3 6 7 8 
3 9 8 11 
3 10 11 233 
3 13 12 14 
3 15 14 254 
3 16 17 19 
3 19 253 252 
3 20 22 23 
3 22 36 37 
3 24 25 27 
3 26 27 43 
3 29 31 30 
3 31 49 48 
3 32 33 35 
3 34 35 54 
3 36 38 39 
3 38 40 41 
3 42 43 45 
3 44 45 47 
3 49 51 50 
3 51 53 52 
3 55 54 57 
3 56 57 59 
3 329 321 320 
3 60 68 69 
3 63 73 72 
3 330 323 322 
3 64 65 77 
3 333 332 325 
3 66 67 80 
3 335 334 327 
3 68 70 71 
3 70 84 85 
3 73 75 74 
3 75 89 88 
3 76 77 79 
3 78 79 93 
3 81 80 83 
3 82 83 96 
3 84 86 87 
3 86 258 259 
3 89 91 90 
3 91 257 256 
3 92 93 95 
3 94 95 261 
3 97 96 99 
3 98 99 263 
3 101 259 258 
3 100 102 103 
3 102 116 117 
3 105 107 106 
3 104 256 257 
3 107 121 120 
3 108 109 111 
3 109 108 260 
3 110 111 125 
3 112 113 262 
3 113 112 115 
3 114 115 128 
3 116 119 118 
3 119 133 132 
3 121 123 122 
3 123 135 134 
3 124 125 126 
3 127 126 137 
3 129 128 131 
3 130 131 139 
3 133 267 266 
3 135 265 264 
3 136 137 269 
3 138 139 271 
3 140 141 157 
3 141 140 143 
3 143 266 267 
3 144 145 159 
3 145 144 146 
3 147 146 264 
3 149 150 151 
3 148 160 161 
3 150 268 269 
3 153 163 162 
3 152 155 154 
3 154 155 270 
3 156 157 164 
3 158 159 167 
3 160 169 168 
3 163 171 170 
3 165 164 275 
3 166 167 273 
3 169 277 276 
3 171 279 278 
3 283 282 172 
3 280 281 177 
3 285 201 200 
3 287 214 215 
3 175 174 306 
3 178 179 305 
3 180 182 183 
3 182 310 311 
3 184 185 304 
3 185 184 187 
3 186 187 189 
3 188 189 289 
3 191 190 193 
3 192 193 309 
3 194 195 307 
3 195 194 196 
3 197 196 198 
3 199 198 292 
3 203 313 312 
3 204 205 206 
3 207 206 314 
3 209 312 313 
3 208 211 210 
3 211 213 212 
3 213 297 296 
3 217 317 316 
3 219 220 221 
3 220 318 319 
3 223 316 317 
3 222 225 224 
3 225 227 226 
3 227 301 300 
3 228 230 231 
3 230 250 251 
3 232 233 235 
3 235 249 248 
3 237 252 253 
3 236 238 239 
3 238 241 240 
3 242 243 255 
3 243 242 245 
3 245 246 247 
3 273 281 280 
3 274 275 282 
3 276 277 285 
3 279 287 286 
3 289 291 290 
3 291 311 310 
3 293 292 295 
3 294 295 308 
3 296 297 299 
3 298 299 315 
3 301 303 302 
3 303 319 318 
3 4 10 232 
3 233 11 236 
3 243 5 229 
3 29 32 34 
3 38 36 42 
3 43 48 50 
3 51 56 58 
3 49 55 56 
3 57 54 37 
3 334 333 324 
3 82 79 77 
3 86 84 88 
3 91 89 92 
3 93 97 98 
3 96 85 87 
3 114 111 109 
3 125 129 130 
3 126 130 138 
3 151 155 152 
3 160 148 152 
3 169 160 162 
3 282 280 176 
3 194 185 186 
3 187 184 209 
3 213 211 224 
3 211 208 223 
3 225 222 195 
3 180 191 192 
3 0 6 9 
3 10 4 2 
3 8 7 241 
3 11 8 238 
3 246 245 239 
3 245 242 237 
3 247 1 3 
3 5 243 244 
3 232 234 230 
3 234 248 250 
3 12 16 18 
3 14 18 252 
3 252 237 242 
3 253 19 235 
3 249 235 19 
3 255 229 231 
3 13 15 231 
3 24 26 22 
3 26 42 36 
3 28 30 27 
3 43 27 30 
3 55 49 31 
3 21 23 35 
3 35 23 37 
3 44 46 40 
3 50 52 47 
3 39 41 59 
3 323 330 328 
3 62 72 68 
3 322 325 332 
3 76 73 63 
3 81 77 65 
3 326 321 329 
3 61 69 80 
3 72 74 70 
3 74 88 84 
3 76 78 75 
3 92 89 75 
3 97 93 79 
3 69 71 83 
3 71 85 96 
3 90 256 258 
3 256 104 100 
3 108 105 257 
3 257 91 94 
3 113 109 261 
3 262 261 95 
3 259 263 99 
3 104 106 102 
3 106 120 116 
3 105 108 110 
3 110 124 121 
3 129 125 111 
3 112 101 103 
3 103 117 128 
3 120 122 119 
3 121 124 127 
3 128 117 118 
3 122 134 133 
3 127 136 135 
3 118 132 139 
3 134 264 267 
3 135 136 268 
3 137 138 270 
3 139 132 266 
3 264 146 142 
3 147 265 268 
3 155 151 269 
3 271 266 143 
3 146 144 141 
3 150 149 145 
3 154 143 140 
3 141 144 158 
3 149 161 159 
3 153 140 156 
3 157 158 166 
3 272 275 164 
3 161 168 167 
3 276 273 167 
3 170 278 277 
3 156 165 171 
3 274 279 171 
3 272 280 282 
3 284 281 273 
3 286 285 277 
3 287 279 274 
3 200 177 281 
3 286 215 201 
3 283 173 214 
3 196 186 188 
3 198 188 288 
3 290 295 292 
3 210 212 189 
3 298 291 289 
3 296 289 189 
3 300 302 299 
3 297 213 226 
3 225 197 199 
3 293 294 303 
3 301 227 199 
3 174 178 304 
3 185 194 306 
3 295 290 310 
3 308 310 182 
3 209 184 305 
3 312 305 179 
3 206 205 181 
3 291 298 314 
3 314 206 183 
3 316 223 208 
3 313 203 216 
3 220 219 204 
3 207 315 318 
3 315 299 302 
3 307 195 222 
3 317 217 175 
3 193 190 218 
3 319 303 294 
3 309 193 221 
3 112 263 259 
3 215 214 217 
3 172 174 175 
3 176 177 179 
3 201 203 202 
3 203 201 215 
3 200 202 179 
3 172 176 178 
3 173 175 217 
3 61 329 328 
3 62 330 331 
3 65 64 332 
3 67 66 334 
3 66 65 333 
3 60 328 330 
3 63 331 332 
3 61 67 335 
3 336 337 342 
3 336 339 338 
3 339 348 349 
3 340 341 346 
3 341 340 343 
3 345 350 351 
3 344 347 346 
3 349 348 351 
3 336 320 321 
3 340 322 323 
3 347 344 324 
3 351 348 326 
3 343 323 320 
3 340 347 325 
3 327 324 344 
3 348 339 321 
3 41 40 337 
3 46 47 341 
3 53 345 346 
3 59 349 350 
3 40 46 342 
3 52 346 341 
3 58 350 345 
3 59 41 338 
3 353 352 33 
3 354 29 28 
3 356 20 21 
3 358 359 25 
3 20 356 358 
3 359 355 28 
3 354 353 32 
3 352 357 21 
3 361 363 362 
3 360 364 365 
3 362 363 373 
3 365 364 366 
3 367 366 368 
3 368 370 371 
3 370 374 375 
3 373 375 374 
3 360 362 357 
3 352 353 364 
3 353 354 366 
3 366 354 355 
3 355 359 370 
3 356 372 374 
3 372 356 357 
3 374 370 359 
3 361 365 12 
3 367 369 17 
3 363 251 250 
3 375 248 249 
3 365 367 16 
3 248 375 373 
3 369 371 249 
3 363 361 13 
3 205 204 180 
3 204 219 191 
3 240 241 7 
3 246 0 1 
