ply
format ascii 1.0
comment VCGLIB generated
comment TextureFile road_bump.jpeg
element vertex 21
property float x
property float y
property float z
property float nx
property float ny
property float nz
property uchar red
property uchar green
property uchar blue
property uchar alpha
property float texture_u
property float texture_v
element face 24
property list uchar int vertex_indices
end_header
-1.1118 -0 2.7795 0.7071068 0.7071068 0 149 149 149 255 0 4.624285e-44
1.1118 -0 2.7795 -0.7071068 0.7071068 0 149 149 149 255 -0.02278822 3.363116e-44
-1.1118 0 -2.7795 0.7071068 0.7071068 0 149 149 149 255 0 3.791085e-37
1.1118 0 -2.7795 -0.7071068 0.7071068 0 149 149 149 255 6.065735e-36 6.459379e-30
-1.1118 0.018656 2.7795 0.707107 0.7071066 2.544618e-07 149 149 149 255 2.838142e-20 7.551259e-15
-1.1118 0.018657 -2.7795 0.7071069 0.7071067 0 149 149 149 255 5.021837e-10 1.29494e-07
1.1118 0.018656 2.7795 -0.707107 0.7071066 2.544618e-07 149 149 149 255 2.071904e-06 2.492294e+12
1.1118 0.018657 -2.7795 -0.7071069 0.7071067 0 149 149 149 255 1.205014e+31 8.001432e+35
-1.6677 0.018656 2.7795 0 1 3.598634e-07 149 149 149 255 -2.332587e-12 -9.330568e-12
-1.6677 0.018657 -2.7795 0 1 0 149 149 149 255 -2.08011e+23 -8.32044e+23
1.6677 0.018656 2.7795 0 1 3.598634e-07 149 149 149 255 -5.355423e+25 -8.568677e+26
1.6677 0.018657 -2.7795 0 1 0 149 149 149 255 -5.515023e+28 -8.824037e+29
-0 0 -2.7795 0 1 0 149 149 149 255 -1.505449e+37 -6.021794e+37
-0 -0 2.7795 0 1 0 149 149 149 255 0 3.601337e-43
-0 0 0 0 1 0 149 149 149 255 2.212413e-34 7.160635e-43
1.6677 0.018657 0 0 1 1.799317e-07 149 149 149 255 0 49400.65
-1.6677 0.018657 0 0 1 1.799317e-07 149 149 149 255 0 0
1.1118 0.018657 0 -0.7071068 0.7071068 1.272309e-07 149 149 149 255 7.160635e-43 3.601337e-43
-1.1118 0.018657 0 0.7071068 0.7071068 1.272309e-07 149 149 149 255 2.212413e-34 7.160635e-43
1.1118 0 0 -0.7071069 0.7071066 0 149 149 149 255 1.401298e-45 51192.73
-1.1118 0 0 0.7071069 0.7071066 0 149 149 149 255 0 8.407791e-45
3 13 20 0 
3 20 5 18 
3 19 6 17 
3 18 9 16 
3 17 10 15 
3 14 1 19 
3 14 3 12 
3 17 11 7 
3 18 8 4 
3 19 7 3 
3 20 4 0 
3 14 2 20 
3 13 14 20 
3 20 2 5 
3 19 1 6 
3 18 5 9 
3 17 6 10 
3 14 13 1 
3 14 19 3 
3 17 15 11 
3 18 16 8 
3 19 17 7 
3 20 18 4 
3 14 12 2 
