ply
format ascii 1.0
comment VCGLIB generated
element vertex 25
property float x
property float y
property float z
property float nx
property float ny
property float nz
property uchar red
property uchar green
property uchar blue
property uchar alpha
property float texture_u
property float texture_v
element face 32
property list uchar int vertex_indices
end_header
-1.999999 4.371139e-07 2 0 1 -2.185569e-07 90 90 90 255 0 0
-0.9999997 4.371139e-07 2 0 1 -2.18557e-07 90 90 90 255 0.9999997 0
0 4.371139e-07 2 0 1 -2.18557e-07 90 90 90 255 1.999999 0
0.9999994 4.371139e-07 2 0 1 -2.18557e-07 90 90 90 255 2.999999 0
1.999999 4.371139e-07 2 0 1 -2.185569e-07 90 90 90 255 3.999999 0
-1.999999 2.185569e-07 1 0 1 -2.18557e-07 90 90 90 255 0 -2.185569e-07
-0.9999997 2.185569e-07 1 0 1 -2.185569e-07 90 90 90 255 0.9999997 -2.185569e-07
0 2.185569e-07 1 0 1 -2.185569e-07 90 90 90 255 1.999999 -2.185569e-07
0.9999994 2.185569e-07 1 0 1 -2.185569e-07 90 90 90 255 2.999999 -2.185569e-07
1.999999 2.185569e-07 1 0 1 -2.18557e-07 90 90 90 255 3.999999 -2.185569e-07
-1.999999 0 0 0 1 -2.185569e-07 90 90 90 255 0 -4.371139e-07
-0.9999997 0 0 0 1 -2.185569e-07 90 90 90 255 0.9999997 -4.371139e-07
0 0 0 0 1 -2.185569e-07 90 90 90 255 1.999999 -4.371139e-07
0.9999994 0 0 0 1 -2.185569e-07 90 90 90 255 2.999999 -4.371139e-07
1.999999 0 0 0 1 -2.185569e-07 90 90 90 255 3.999999 -4.371139e-07
-1.999999 -2.185569e-07 -1 0 1 -2.185569e-07 90 90 90 255 0 -6.556708e-07
-0.9999997 -2.185569e-07 -1 0 1 -2.18557e-07 90 90 90 255 0.9999997 -6.556708e-07
0 -2.185569e-07 -1 0 1 -2.18557e-07 90 90 90 255 1.999999 -6.556708e-07
0.9999994 -2.185569e-07 -1 0 1 -2.18557e-07 90 90 90 255 2.999999 -6.556708e-07
1.999999 -2.185569e-07 -1 0 1 -2.18557e-07 90 90 90 255 3.999999 -6.556708e-07
-1.999999 -4.371139e-07 -2 0 1 -2.18557e-07 90 90 90 255 0 -8.742278e-07
-0.9999997 -4.371139e-07 -2 0 1 -2.18557e-07 90 90 90 255 0.9999997 -8.742278e-07
0 -4.371139e-07 -2 0 1 -2.18557e-07 90 90 90 255 1.999999 -8.742278e-07
0.9999994 -4.371139e-07 -2 0 1 -2.18557e-07 90 90 90 255 2.999999 -8.742278e-07
1.999999 -4.371139e-07 -2 0 1 -2.18557e-07 90 90 90 255 3.999999 -8.742278e-07
3 0 1 5 
3 1 6 5 
3 1 2 6 
3 2 7 6 
3 2 3 7 
3 3 8 7 
3 3 4 8 
3 4 9 8 
3 5 6 10 
3 6 11 10 
3 6 7 11 
3 7 12 11 
3 7 8 12 
3 8 13 12 
3 8 9 13 
3 9 14 13 
3 10 11 15 
3 11 16 15 
3 11 12 16 
3 12 17 16 
3 12 13 17 
3 13 18 17 
3 13 14 18 
3 14 19 18 
3 15 16 20 
3 16 21 20 
3 16 17 21 
3 17 22 21 
3 17 18 22 
3 18 23 22 
3 18 19 23 
3 19 24 23 
